<?xml version="1.0" encoding="UTF-8"?>
<svg id="Layer_1" data-name="Layer 1" xmlns="http://www.w3.org/2000/svg" viewBox="0 0 1080 252">
  <defs>
    <style>
      .cls-1 {
        fill: #03072d;
      }

      .cls-2 {
        fill: #fff;
      }

      .cls-3 {
        fill: #402aff;
      }
    </style>
  </defs>
  <g>
    <path class="cls-1" d="M400.44,74.58c-6.75-4.7-14.73-7.07-23.9-7.07-7.81,0-14.66,2.15-20.55,6.42-5.91,4.29-10.08,10.27-12.56,17.97v-18.26c0-2.66-2.16-4.82-4.82-4.82h-21.78c-2.66,0-4.82,2.16-4.82,4.82v138.56c0,2.66,2.16,4.82,4.82,4.82h21.78c2.66,0,4.82-2.16,4.82-4.82v-62.67c2.48,7.69,6.66,13.67,12.56,17.97,5.88,4.27,12.73,6.42,20.55,6.42,9.16,0,17.15-2.36,23.9-7.07,6.75-4.73,11.96-11.07,15.63-19.08,3.64-8.01,5.47-17.03,5.47-27.06s-1.83-18.91-5.47-26.96c-3.66-8.05-8.87-14.45-15.63-19.17ZM386.21,134.58c-2.12,3.76-4.87,6.68-8.27,8.73-3.43,2.05-7.23,3.06-11.46,3.06s-7.89-1.01-11.43-3.06c-3.52-2.05-6.37-4.97-8.46-8.73-2.1-3.79-3.16-8.42-3.16-13.87s1.06-9.96,3.16-13.87c2.1-3.91,4.9-6.87,8.37-8.92,3.47-2.05,7.26-3.06,11.36-3.06s8.05,1.01,11.53,3.06c3.47,2.05,6.25,5.02,8.37,8.92,2.1,3.91,3.16,8.54,3.16,13.87s-1.06,10.08-3.16,13.87Z"/>
    <path class="cls-1" d="M536.53,148.74l-12.71-10.01c-1.87-1.47-4.57-1.42-6.27.23-1.49,1.44-3.15,2.8-4.97,4.06-3.04,2.12-6.37,3.83-9.96,5.14-3.59,1.28-7.36,1.93-11.33,1.93s-7.79-.65-11.43-1.93c-3.67-1.3-6.73-3.14-9.21-5.5-2.48-2.36-4.1-4.9-4.85-7.62.51.12,1.25.19,2.24.19s2.05.02,3.16.07c1.11.07,2.17.1,3.16.1,6.95.12,13.99-.31,21.13-1.3,7.11-.99,13.7-2.75,19.7-5.31,6.01-2.53,10.85-6.01,14.52-10.39,3.64-4.41,5.47-9.84,5.47-16.28,0-5.21-1.23-9.91-3.71-14.13-2.48-4.22-5.93-7.89-10.32-10.97-4.41-3.11-9.41-5.47-14.98-7.07-5.57-1.62-11.34-2.44-17.29-2.44-7.45,0-14.49,1.3-21.13,3.91-6.63,2.6-12.49,6.32-17.56,11.17-5.09,4.85-9.07,10.54-11.91,17.12-2.84,6.56-4.27,13.82-4.27,21.75s1.52,15.7,4.56,22.21c3.04,6.51,7.21,12.01,12.54,16.47,5.33,4.46,11.41,7.86,18.23,10.23,6.82,2.36,14.01,3.55,21.58,3.55,6.32,0,12.54-.82,18.69-2.44,6.13-1.59,11.87-4.03,17.19-7.23,3.89-2.36,7.36-5.2,10.39-8.55,1.85-2.04,1.5-5.25-.66-6.95ZM467.48,103.69c1.98-3.52,4.82-6.46,8.56-8.83,3.71-2.36,8.05-3.55,13-3.55,2.87,0,5.5.46,7.91,1.3,2.44.87,4.41,2.12,5.96,3.74,1.54,1.62,2.32,3.47,2.32,5.57,0,2.6-.94,4.75-2.87,6.42-1.93,1.69-4.41,3.01-7.45,4-3.04.99-6.32,1.64-9.84,1.95-3.55.31-7.04.46-10.52.46-1.98,0-3.91-.02-5.76-.1-1.86-.05-3.42-.14-4.65-.27.24-3.59,1.37-7.16,3.35-10.71Z"/>
    <path class="cls-1" d="M614.26,68.05c-6.22.81-11.49,3.06-15.85,6.72-5.57,4.73-9.48,11.09-11.72,19.15v-20.28c0-2.66-2.16-4.82-4.82-4.82h-21.78c-2.66,0-4.82,2.16-4.82,4.82v94.15c0,2.66,2.16,4.82,4.82,4.82h21.78c2.66,0,4.82-2.16,4.82-4.82v-39.82c0-6.08,1.18-11.19,3.55-15.34,3.95-7.04,10.17-11.2,18.54-12.59.15-.02.31-.04.46-.06,2.46-.19,4.75-.13,6.76.08,2.04.21,3.81-1.39,3.81-3.44v-23.79c0-2.95-2.62-5.17-5.54-4.78Z"/>
    <path class="cls-1" d="M732.04,155.13c-2.92-5.6-6.44-10.71-10.59-15.36-4.17-4.63-8.66-8.63-13.51-11.99-4.82-3.35-9.72-5.64-14.69-6.87,6.44-2.73,12.61-6.7,18.52-11.91,5.88-5.21,11.02-11.24,15.43-18.14,3.18-4.97,5.76-10.2,7.74-15.66,1.13-3.11-1.27-6.38-4.57-6.38h-23.09c-2.16,0-4.07,1.43-4.63,3.51-1.46,5.46-3.74,10.52-6.81,15.18-3.71,5.64-8.15,10.37-13.29,14.13-5.16,3.79-10.59,6.37-16.28,7.74V39.8c0-2.66-2.16-4.82-4.82-4.82h-21.78c-2.66,0-4.82,2.16-4.82,4.82v127.99c0,2.66,2.16,4.82,4.82,4.82h21.78c2.66,0,4.82-2.16,4.82-4.82v-34.05c4.34.63,8.56,1.98,12.64,4.08,4.1,2.12,7.86,4.87,11.26,8.3,3.4,3.4,6.34,7.33,8.83,11.79,1.93,3.46,3.45,7.21,4.55,11.2.57,2.08,2.47,3.51,4.63,3.51h23.78c3.26,0,5.53-3.16,4.6-6.29-1.14-3.84-2.65-7.58-4.54-11.2Z"/>
    <path class="cls-1" d="M839,74.58c-6.78-4.7-14.73-7.07-23.9-7.07-7.81,0-14.66,2.15-20.57,6.42-5.88,4.29-10.06,10.27-12.54,17.97v-52.09c0-2.66-2.16-4.82-4.82-4.82h-21.8c-2.66,0-4.82,2.16-4.82,4.82v127.99c0,2.66,2.16,4.82,4.82,4.82h10.8c5.09,0,9-1.4,11.72-4.2,2.72-2.8,4.1-6.73,4.1-11.82v-7.07c2.48,7.69,6.66,13.67,12.54,17.97,5.91,4.27,12.76,6.42,20.57,6.42,9.16,0,17.12-2.36,23.9-7.07,6.75-4.73,11.96-11.07,15.6-19.08,3.67-8.01,5.5-17.03,5.5-27.06s-1.83-18.91-5.5-26.96c-3.64-8.05-8.85-14.45-15.6-19.17ZM824.77,134.58c-2.12,3.76-4.87,6.68-8.3,8.73-3.4,2.05-7.21,3.06-11.43,3.06s-8.05-1.01-11.53-3.06c-3.47-2.05-6.27-4.97-8.37-8.73-2.12-3.79-3.16-8.42-3.16-13.87s1.04-9.96,3.16-13.87c2.1-3.91,4.9-6.87,8.37-8.92,3.47-2.05,7.31-3.06,11.53-3.06s8.03,1.01,11.43,3.06c3.42,2.05,6.17,4.99,8.3,8.85,2.1,3.83,3.16,8.49,3.16,13.94s-1.06,10.08-3.16,13.87Z"/>
    <path class="cls-1" d="M953.91,73.93c-8.1-4.27-17.31-6.42-27.61-6.42s-19.15,2.15-27.32,6.42c-8.2,4.29-14.64,10.39-19.34,18.33-4.73,7.93-7.09,17.41-7.09,28.46s2.34,20.33,6.99,28.26c4.63,7.93,11,14.08,19.05,18.43,8.05,4.34,17.12,6.51,27.16,6.51s19.56-2.17,27.81-6.51c8.25-4.34,14.76-10.49,19.53-18.43,4.77-7.93,7.16-17.36,7.16-28.26s-2.36-20.52-7.07-28.46c-4.73-7.93-11.14-14.04-19.27-18.33ZM945.08,135.13c-2.1,3.91-4.87,6.78-8.27,8.63-3.42,1.86-7.04,2.8-10.88,2.8s-7.43-.94-10.71-2.8c-3.28-1.86-5.89-4.73-7.81-8.63-1.91-3.91-2.87-8.78-2.87-14.61s1.01-10.64,3.06-14.4c2.05-3.79,4.7-6.61,8.01-8.46,3.28-1.86,6.85-2.8,10.68-2.8s7.4.94,10.71,2.8c3.28,1.86,5.98,4.68,8.08,8.46,2.12,3.76,3.16,8.59,3.16,14.4s-1.04,10.71-3.16,14.61Z"/>
    <path class="cls-1" d="M1079.13,165.04l-30.4-43.85,29.6-44.9c2.11-3.21-.19-7.48-4.03-7.48h-22.11c-1.71,0-3.3.91-4.17,2.39l-15.53,26.6-18.65-26.91c-.9-1.3-2.38-2.08-3.96-2.08h-23.43c-3.89,0-6.18,4.37-3.97,7.57l29.85,43.15-29.37,45.65c-2.07,3.21.24,7.43,4.06,7.43h22.4c1.73,0,3.32-.92,4.18-2.42l15.32-26.64,18.67,26.98c.9,1.3,2.38,2.08,3.97,2.08h23.59c3.89,0,6.18-4.37,3.96-7.57Z"/>
  </g>
  <g>
    <path class="cls-3" d="M252,126c0,34.79-14.12,66.3-36.93,89.09-22.79,22.81-54.28,36.91-89.07,36.91s-66.28-14.1-89.11-36.91C14.09,192.3,0,160.79,0,126,0,56.42,56.42,0,126,0c34.79,0,66.28,14.11,89.07,36.91,22.81,22.79,36.93,54.3,36.93,89.09Z"/>
    <g>
      <path class="cls-2" d="M140.39,159.74c-.22-.02-.44-.05-.66-.07-2.11-.21-4.24-.37-6.4-.48-.23-.01-.46-.02-.69-.03-.23-.02-.46-.02-.69-.03-1.97-.09-3.95-.13-5.95-.13-1.68,0-3.35.03-5.01.09-.23,0-.46.01-.69.02-.23,0-.46.02-.69.03-2.17.1-4.31.24-6.43.44-.22.02-.44.04-.66.06-.22.02-.44.04-.66.06-3.36.34-6.65.81-9.85,1.39.21.17.42.35.64.52.08.06.15.13.23.19.14.11.27.22.41.32.08.07.17.14.25.2.22.18.44.35.66.52,1.95,1.54,4,3.09,6.13,4.64l3.34,16.12h-.35c-2.06,0-3.6,1.89-3.18,3.91l3.86,18.62c.31,1.51,1.64,2.59,3.18,2.59h17.68c1.54,0,2.87-1.08,3.18-2.59l3.86-18.62c.42-2.02-1.12-3.91-3.18-3.91h-.35l3.34-16.12c2.13-1.56,4.19-3.11,6.14-4.65.22-.17.44-.35.65-.52.08-.06.16-.13.25-.2.14-.11.27-.22.4-.32.08-.06.16-.13.24-.19.21-.17.43-.34.64-.52-2.91-.53-5.9-.96-8.95-1.29-.22-.02-.44-.05-.66-.07ZM118.31,183.61l-3.02-14.59c7.18-.55,14.37-.53,21.42,0l-3.02,14.59h-15.37Z"/>
      <path class="cls-2" d="M116.38,151.08c.12.26.25.52.37.77,2.88-.17,5.83-.26,8.78-.26,3.26,0,6.52.11,9.7.32.12-.25.25-.52.39-.83,8.87-18.81,13.96-40.44,13.96-59.34,0-16.22-3.11-29.39-9-38.09-3.46-5.1-7.72-8.48-12.35-9.77l-2.19-.61-2.14.58c-4.67,1.26-8.98,4.65-12.47,9.81-5.89,8.69-9,21.86-9,38.09,0,18.9,5.09,40.53,13.95,59.34Z"/>
      <path class="cls-2" d="M94.58,91.74c0-17.89,3.6-32.68,10.43-42.75,1.01-1.5,2.11-2.9,3.27-4.19-26.44,6.63-45.78,27.72-45.78,52.73.11,7.5,1.21,12.12,4.41,20.14,4.2,10.05,12.34,23.08,28.01,37.33l.85-.19c4.07-.91,8.32-1.64,12.64-2.16-8.8-19.41-13.83-41.51-13.83-60.91Z"/>
      <path class="cls-2" d="M144.97,45.13c1.06,1.2,2.06,2.49,2.98,3.86,6.82,10.08,10.43,24.86,10.43,42.75,0,19.45-5.05,41.59-13.89,61.02,4,.51,7.95,1.2,11.75,2.05l.85.19c15.67-14.25,23.8-27.28,28-37.33,3.2-8.02,4.31-12.64,4.41-20.14,0-24.61-18.73-45.44-44.53-52.41Z"/>
    </g>
  </g>
</svg>