<?xml version="1.0" encoding="UTF-8"?>
<svg id="Layer_1" data-name="Layer 1" xmlns="http://www.w3.org/2000/svg" viewBox="0 0 1079.91 252">
  <defs>
    <style>
      .cls-1 {
        fill: #fff;
      }

      .cls-2 {
        fill: #402aff;
      }
    </style>
  </defs>
  <g>
    <path class="cls-1" d="M400.54,75.13c-6.74-4.72-14.72-7.1-23.88-7.11-7.81-.02-14.67,2.12-20.56,6.37-5.92,4.28-10.1,10.25-12.6,17.94l.04-18.26c0-2.66-2.15-4.83-4.81-4.83l-21.78-.04c-2.66,0-4.83,2.15-4.83,4.81l-.28,138.56c0,2.66,2.15,4.83,4.81,4.83l21.78.04c2.66,0,4.83-2.15,4.83-4.81l.13-62.67c2.47,7.7,6.63,13.69,12.53,17.99,5.88,4.28,12.72,6.44,20.53,6.46,9.16.02,17.15-2.33,23.91-7.02,6.76-4.71,11.98-11.05,15.67-19.04,3.66-8,5.51-17.02,5.53-27.05.02-9.91-1.79-18.91-5.42-26.97-3.65-8.06-8.85-14.46-15.59-19.2ZM386.19,135.1c-2.13,3.76-4.88,6.67-8.29,8.71-3.43,2.04-7.24,3.05-11.46,3.04-4.08,0-7.89-1.03-11.43-3.09-3.52-2.06-6.36-4.98-8.45-8.75-2.09-3.79-3.14-8.42-3.13-13.87s1.08-9.96,3.19-13.86c2.11-3.9,4.91-6.86,8.39-8.91,3.48-2.04,7.26-3.05,11.36-3.04s8.05,1.03,11.52,3.09c3.47,2.06,6.24,5.03,8.35,8.94,2.09,3.91,3.14,8.54,3.13,13.87s-1.08,10.08-3.19,13.86Z"/>
    <path class="cls-1" d="M536.48,149.56l-12.69-10.04c-1.86-1.47-4.57-1.43-6.27.22-1.49,1.44-3.15,2.79-4.98,4.05-3.04,2.12-6.37,3.82-9.97,5.12-3.6,1.27-7.36,1.91-11.34,1.91-3.98,0-7.79-.67-11.43-1.95-3.66-1.31-6.72-3.15-9.2-5.52-2.48-2.37-4.09-4.9-4.83-7.63.51.12,1.25.2,2.24.2s2.05.03,3.16.08c1.11.07,2.17.1,3.16.1,6.95.13,13.99-.29,21.13-1.26,7.12-.97,13.7-2.72,19.71-5.27,6.01-2.52,10.86-5.98,14.54-10.37,3.65-4.41,5.49-9.83,5.51-16.27.01-5.21-1.21-9.91-3.69-14.14-2.48-4.23-5.92-7.9-10.3-10.99-4.41-3.12-9.4-5.49-14.96-7.1-5.57-1.63-11.33-2.46-17.29-2.47-7.45-.01-14.5,1.27-21.13,3.86-6.64,2.59-12.51,6.29-17.58,11.13-5.1,4.84-9.09,10.52-11.95,17.1-2.86,6.55-4.3,13.81-4.31,21.74-.02,8.3,1.49,15.7,4.51,22.22,3.03,6.52,7.19,12.02,12.51,16.5,5.32,4.47,11.39,7.88,18.21,10.26,6.82,2.38,14,3.57,21.58,3.59,6.32.01,12.54-.8,18.7-2.4,6.13-1.58,11.87-4,17.21-7.2,3.9-2.35,7.37-5.19,10.41-8.53,1.85-2.04,1.51-5.25-.65-6.96ZM467.52,104.37c1.98-3.52,4.84-6.45,8.58-8.81,3.72-2.36,8.06-3.53,13.01-3.52,2.87,0,5.5.47,7.91,1.32,2.43.87,4.41,2.13,5.95,3.75,1.54,1.62,2.31,3.48,2.3,5.58,0,2.6-.95,4.75-2.88,6.41-1.93,1.68-4.42,3.01-7.46,3.99-3.04.98-6.32,1.63-9.84,1.93-3.55.31-7.04.44-10.52.44-1.98,0-3.91-.03-5.76-.11-1.86-.05-3.42-.15-4.65-.27.25-3.59,1.39-7.16,3.37-10.7Z"/>
    <path class="cls-1" d="M614.37,69.03c-6.22.8-11.5,3.03-15.86,6.69-5.58,4.72-9.5,11.07-11.76,19.13l.04-20.28c0-2.66-2.15-4.83-4.81-4.83l-21.78-.04c-2.66,0-4.83,2.15-4.83,4.81l-.19,94.15c0,2.66,2.15,4.83,4.81,4.83l21.78.04c2.66,0,4.83-2.15,4.83-4.81l.08-39.82c.01-6.08,1.2-11.19,3.58-15.33,3.96-7.04,10.19-11.18,18.56-12.55.15-.02.31-.04.46-.05,2.46-.19,4.75-.12,6.76.09,2.04.21,3.81-1.38,3.82-3.43l.05-23.79c0-2.95-2.61-5.17-5.53-4.79Z"/>
    <path class="cls-1" d="M731.98,156.34c-2.91-5.6-6.42-10.72-10.56-15.38-4.16-4.64-8.64-8.65-13.48-12.01-4.82-3.36-9.71-5.66-14.67-6.9,6.44-2.71,12.63-6.68,18.54-11.88,5.89-5.2,11.04-11.22,15.47-18.1,3.19-4.97,5.78-10.18,7.77-15.65,1.13-3.11-1.25-6.38-4.56-6.39l-23.09-.05c-2.16,0-4.07,1.42-4.63,3.5-1.47,5.46-3.76,10.51-6.84,15.16-3.72,5.64-8.17,10.35-13.32,14.11-5.17,3.78-10.6,6.35-16.29,7.71l.14-69.58c0-2.66-2.15-4.83-4.81-4.83l-21.78-.04c-2.66,0-4.83,2.15-4.83,4.81l-.26,127.99c0,2.66,2.15,4.83,4.81,4.83l21.78.04c2.66,0,4.83-2.15,4.83-4.81l.07-34.05c4.34.64,8.56,1.99,12.63,4.1,4.1,2.13,7.85,4.89,11.25,8.32,3.39,3.41,6.33,7.34,8.8,11.81,1.92,3.47,3.44,7.21,4.53,11.21.57,2.08,2.46,3.52,4.62,3.52l23.78.05c3.26,0,5.54-3.14,4.62-6.28-1.13-3.84-2.63-7.58-4.52-11.21Z"/>
    <path class="cls-1" d="M839.1,76c-6.77-4.72-14.72-7.1-23.89-7.11-7.81-.02-14.67,2.12-20.58,6.37-5.89,4.28-10.08,10.25-12.58,17.94l.1-52.09c0-2.66-2.15-4.83-4.81-4.83l-21.8-.04c-2.66,0-4.83,2.15-4.83,4.81l-.26,127.99c0,2.66,2.15,4.83,4.81,4.83l10.8.02c5.09.01,9-1.38,11.73-4.17,2.73-2.79,4.11-6.72,4.12-11.81v-7.07c2.48,7.7,6.64,13.69,12.52,17.99,5.9,4.28,12.75,6.44,20.56,6.46,9.16.02,17.13-2.33,23.91-7.02,6.76-4.71,11.98-11.05,15.64-19.04,3.68-8,5.53-17.02,5.55-27.05.02-9.91-1.79-18.91-5.44-26.97-3.63-8.06-8.82-14.46-15.57-19.2ZM824.75,135.97c-2.13,3.76-4.88,6.67-8.31,8.71-3.4,2.04-7.22,3.05-11.44,3.04-4.22,0-8.05-1.03-11.52-3.09-3.47-2.06-6.26-4.98-8.35-8.75-2.11-3.79-3.14-8.42-3.13-13.87s1.06-9.96,3.19-13.86c2.11-3.9,4.91-6.86,8.39-8.91,3.48-2.04,7.31-3.05,11.53-3.04s8.03,1.03,11.43,3.09c3.42,2.06,6.16,5,8.28,8.87,2.09,3.84,3.14,8.5,3.13,13.95s-1.08,10.08-3.19,13.86Z"/>
    <path class="cls-1" d="M954.01,75.58c-8.09-4.28-17.3-6.45-27.6-6.47s-19.15,2.11-27.34,6.36c-8.21,4.28-14.66,10.36-19.38,18.29-4.74,7.93-7.12,17.4-7.15,28.44-.02,10.9,2.3,20.33,6.94,28.28,4.61,7.94,10.97,14.11,19.02,18.46,8.05,4.36,17.11,6.55,27.14,6.57,10.3.02,19.56-2.13,27.82-6.46,8.26-4.32,14.78-10.46,19.57-18.39,4.79-7.92,7.2-17.35,7.22-28.25.02-11.05-2.32-20.53-7.01-28.47-4.71-7.94-11.11-14.06-19.23-18.37ZM945.06,136.77c-2.11,3.9-4.89,6.77-8.29,8.62-3.43,1.85-7.05,2.78-10.88,2.78s-7.42-.96-10.7-2.82c-3.28-1.86-5.88-4.74-7.8-8.65-1.9-3.91-2.85-8.78-2.84-14.62s1.03-10.63,3.09-14.39c2.06-3.78,4.72-6.6,8.02-8.45,3.28-1.85,6.86-2.78,10.69-2.78s7.4.96,10.7,2.82c3.28,1.86,5.97,4.69,8.06,8.48,2.11,3.77,3.14,8.59,3.13,14.4s-1.06,10.71-3.19,14.61Z"/>
    <path class="cls-1" d="M1079.05,166.94l-30.31-43.91,29.69-44.84c2.12-3.2-.17-7.48-4.01-7.49l-22.11-.04c-1.71,0-3.3.9-4.17,2.38l-15.59,26.57-18.6-26.95c-.9-1.3-2.38-2.08-3.96-2.08l-23.43-.05c-3.89,0-6.19,4.36-3.98,7.56l29.77,43.21-29.46,45.59c-2.07,3.21.22,7.43,4.04,7.44l22.4.04c1.73,0,3.32-.92,4.19-2.41l15.38-26.61,18.62,27.02c.9,1.3,2.38,2.08,3.96,2.09l23.59.05c3.89,0,6.19-4.36,3.98-7.56Z"/>
  </g>
  <g>
    <path class="cls-2" d="M252,126.25c-.07,34.79-14.26,66.27-37.11,89.01-22.83,22.76-54.35,36.8-89.14,36.73-34.79-.07-66.25-14.24-89.03-37.09C13.95,192.08-.07,160.54,0,125.75.14,56.17,56.67-.14,126.25,0c34.79.07,66.25,14.24,89,37.09,22.76,22.83,36.82,54.37,36.75,89.16Z"/>
    <g>
      <path class="cls-1" d="M140.32,159.76c-.22-.03-.44-.05-.66-.07-2.11-.21-4.24-.38-6.4-.49-.23-.01-.46-.03-.69-.03-.23-.02-.46-.03-.69-.03-1.97-.09-3.95-.13-5.95-.14-1.68,0-3.35.02-5.01.08-.23,0-.46.01-.69.02-.23,0-.46.02-.69.03-2.17.09-4.31.24-6.43.43-.22.02-.44.04-.66.06-.22.02-.44.04-.66.06-3.36.34-6.65.79-9.85,1.37.21.17.42.35.64.52.08.06.15.13.23.19.14.11.27.22.41.32.08.07.17.14.25.2.22.18.44.35.66.52,1.94,1.54,3.99,3.1,6.12,4.65l3.31,16.13h-.35c-2.06,0-3.6,1.88-3.19,3.9l3.82,18.63c.31,1.51,1.64,2.59,3.18,2.6l17.68.04c1.54,0,2.87-1.08,3.19-2.58l3.89-18.61c.42-2.02-1.11-3.91-3.17-3.91h-.35s3.37-16.11,3.37-16.11c2.14-1.55,4.2-3.1,6.15-4.63.22-.17.44-.34.65-.52.08-.06.16-.13.25-.2.14-.11.27-.22.4-.32.08-.06.16-.13.24-.19.21-.17.43-.34.64-.51-2.91-.53-5.9-.97-8.94-1.31-.22-.02-.44-.05-.66-.07ZM118.2,183.59l-2.99-14.6c7.18-.53,14.37-.5,21.42.04l-3.05,14.59-15.37-.03Z"/>
      <path class="cls-1" d="M116.33,151.06c.12.26.25.52.37.77,2.88-.17,5.83-.25,8.78-.24,3.26,0,6.52.12,9.7.34.12-.25.25-.52.4-.83,8.91-18.8,14.04-40.41,14.07-59.31.03-16.22-3.06-29.4-8.92-38.11-3.45-5.11-7.71-8.5-12.33-9.79l-2.19-.62-2.14.57c-4.67,1.25-8.99,4.63-12.49,9.78-5.91,8.68-9.04,21.85-9.08,38.07-.04,18.9,5.01,40.54,13.83,59.37Z"/>
      <path class="cls-1" d="M94.65,91.68c.04-17.89,3.67-32.67,10.51-42.73,1.02-1.49,2.11-2.9,3.28-4.18-26.46,6.58-45.83,27.63-45.88,52.64.1,7.5,1.19,12.13,4.37,20.15,4.18,10.05,12.29,23.1,27.94,37.38l.86-.19c4.08-.9,8.32-1.62,12.65-2.14-8.76-19.43-13.75-41.54-13.71-60.93Z"/>
      <path class="cls-1" d="M145.13,45.16c1.06,1.2,2.05,2.5,2.97,3.87,6.8,10.09,10.38,24.88,10.34,42.78-.04,19.45-5.13,41.58-14.01,60.99,4,.52,7.95,1.22,11.74,2.07l.85.19c15.7-14.22,23.85-27.24,28.07-37.27,3.22-8.01,4.33-12.63,4.45-20.13.05-24.61-18.64-45.47-44.43-52.5Z"/>
    </g>
  </g>
</svg>