<?xml version="1.0" standalone="no"?>
<!DOCTYPE svg PUBLIC "-//W3C//DTD SVG 1.1//EN" "http://www.w3.org/Graphics/SVG/1.1/DTD/svg11.dtd">
<svg xmlns="http://www.w3.org/2000/svg" id="Layer_2" data-name="Layer 2" viewBox="0 0 144.73 192.78" width="144.72999572753906" height="192.77999877929688">
  <defs>
    <style>
      .cls-1 {
        fill: #FFB800;
      }
    </style>
  </defs>
  <g id="Layer_1-2" data-name="Layer 1">
    <g id="_3_Stars" data-name="3 Stars">
      <path class="cls-1" d="M133.58,98.72c-16.85-17.41-25.3-18.78-46.78-7.56-1.91,1-3.71-1.5-2.16-3,17.41-16.86,18.78-25.3,7.56-46.78-1-1.91,1.5-3.71,3-2.16,16.86,17.41,25.3,18.78,46.78,7.56,1.91-1,3.71,1.5,2.17,3-17.41,16.85-18.78,25.3-7.56,46.78,1,1.91-1.5,3.71-3,2.16"/>
      <path class="cls-1" d="M78.15,191.96c-6.08-15.6-11.09-18.74-27.78-17.34-1.48.12-1.96-1.95-.58-2.49,15.6-6.08,18.73-11.09,17.34-27.78-.12-1.48,1.95-1.96,2.49-.58,6.08,15.6,11.09,18.74,27.78,17.34,1.48-.12,1.96,1.95.58,2.49-15.61,6.08-18.73,11.09-17.34,27.78.12,1.48-1.95,1.96-2.49.58"/>
      <path class="cls-1" d="M36.26,36.63c-13.82-9.46-19.73-9.21-32.72,1.36-1.15.94-2.72-.5-1.88-1.73C11.11,22.43,10.87,16.53.3,3.54c-.94-1.15.5-2.72,1.73-1.88C15.85,11.11,21.76,10.87,34.75.3c1.15-.94,2.72.5,1.88,1.73-9.46,13.82-9.21,19.73,1.36,32.72.94,1.15-.5,2.72-1.73,1.88"/>
    </g>
  </g>
</svg>