<?xml version="1.0" standalone="no"?>
<!DOCTYPE svg PUBLIC "-//W3C//DTD SVG 1.1//EN" "http://www.w3.org/Graphics/SVG/1.1/DTD/svg11.dtd">
<svg xmlns="http://www.w3.org/2000/svg" id="Layer_2" data-name="Layer 2" viewBox="0 0 218.93 164.88" width="218.92999267578125" height="164.8800048828125">
  <defs>
    <style>
      .cls-1 {
        fill: #FFB800;
      }
    </style>
  </defs>
  <g id="Layer_1-2" data-name="Layer 1">
    <g id="Speed_Lightning" data-name="Speed Lightning">
      <path class="cls-1" d="M97.28,102.69c-1.62-3.2-4.5-8.75-6.8-12.4-.65-1.04.25-2.35,1.45-2.12,11.16,2.21,66.29,11.35,76.15,13.89.61.16,1.26-.12,1.57-.67l-10.76-17.67s-.05-.09-.07-.13l-1.03-1.69s0,0,0,0c.01-.03,0-.05-.04-.08,0,0,0-.01-.01-.02-.54-1.02.35-2.23,1.51-2,8.83,1.74,32.67,6.49,47.12,9.64,1.25.27,2.41-.68,2.41-1.96v-.03c0-4.51.17-8.94.49-13.27.08-1.03-.64-1.95-1.66-2.11-28.87-4.65-63.52-8.92-78.41-9.06-1.13-.01-1.8,1.23-1.18,2.17,1.94,2.94,5.41,8.36,7.48,12.67.45.94-.26,2.02-1.29,2,0,0,0,0-.01,0-30.66-5.58-54.49-8.3-72.31-8.46-1.12-.01-1.8,1.24-1.18,2.17,1.95,2.94,5.41,8.36,7.48,12.67.45.94-.26,2.02-1.3,2-8.6-.23-40.57-1-65.51-.39-1.72.04-1.86,2.55-.16,2.79,24.99,3.48,73.6,10.36,94.58,14.07,1.14.2,2.01-.98,1.49-2.01"/>
      <path class="cls-1" d="M212.41,122.88c-.21-.98-1.1-1.66-2.09-1.58-29.84,2.37-66.76,6.75-81.83,10.34-1.09.26-1.44,1.63-.62,2.39,2.6,2.39,7.26,6.81,10.31,10.5.66.81.23,2.03-.79,2.25-8.4,1.84-39.62,8.78-63.68,15.36-1.66.45-1.2,2.92.51,2.74,25.09-2.62,73.94-7.63,95.19-9.06,1.15-.08,1.72-1.44.97-2.31-2.34-2.71-6.47-7.41-9.58-10.4-.89-.85-.33-2.35.9-2.41,9.94-.47,38.56-1.79,52.39-2.04,1.33-.02,2.27-1.33,1.85-2.59-1.36-4.16-2.54-8.56-3.53-13.18"/>
      <path class="cls-1" d="M217.71,28.51C189.75,16.97,153.59,3.71,138.17.04c-1.09-.27-2.03.8-1.64,1.85,1.24,3.3,3.41,9.37,4.46,14.03.23,1.02-.7,1.91-1.71,1.65-8.32-2.15-39.32-10.05-63.78-15.04-1.68-.34-2.38,2.07-.77,2.68,23.57,8.98,69.42,26.56,89.04,34.87,1.06.45,2.18-.5,1.9-1.62-.86-3.48-2.43-9.54-3.86-13.61-.4-1.16.77-2.24,1.89-1.74,9.15,4.1,35.62,15.97,47.96,21.94,1.12.54,2.44-.07,2.78-1.28,1.26-4.49,2.71-8.72,4.32-12.66.42-1.02-.05-2.18-1.07-2.6"/>
    </g>
  </g>
</svg>